<svg xmlns="http://www.w3.org/2000/svg" xmlns:xlink="http://www.w3.org/1999/xlink" version="1.1" id="Layer_1" x="0px" y="0px" viewBox="0 0 1239.36 274.26" style="enable-background:new 0 0 1239.36 274.26;" xml:space="preserve">
<style type="text/css">
	.st0{fill-rule:evenodd;clip-rule:evenodd;fill:#DA3A64;}
	.st1{display:none;}
	.st2{display:inline;fill:#DA3A64;}
	.st3{font-family:'Averta-Bold';}
	.st4{font-size:138px;}
	.st5{fill:#DA3A64;}
</style>
<g>
	<path class="st0" d="M82.26,231.11c0,0-3.3,23.81,19.57,37.04c11.42,7.73,25.9,5.88,38.13,1.06c2.04-0.8,63.71-36.93,63.71-36.93   s107.01-61,107.01-61.15c21.22-13.5,19.4-33.22,19.4-33.22s1.84-19.53-19.4-33.81C289.6,91.81,199.27,40.6,199.27,40.6l-63.5-35.87   c0,0-17.25-7.79-33.94,2.94C79.66,21.34,82.55,40.01,82.55,40.01v5.88l18.69,11.17V40.01c0-18.9,22.33-20.86,28.06-17.64   c5.73,3.22,171.1,97.78,171.1,97.78s10.52,4.74,10.52,17.78c0,13.03-10.52,17.74-10.52,17.74l-107.6,61.92l-59.39,34.1   c0,0-5.56,3.14-11.76,3.23c-23.25-2.99-19.99-23.81-19.99-23.81H82.26z"/>
	<path class="st0" d="M82.26,231.11v-76.44V80l19.4,10.58v140.53H82.26z"/>
	<path class="st0" d="M111.07,192.59v20.87l69.12-38.81c0,0,23.49-10.39,23.49-36.75c0-26.36-23.49-36.16-23.49-36.16l-78.95-44.69   c0,0-8.79-5.29-18.1-11.17c-9.31-5.88-22.34-5.88-22.34-5.88s-11.54,0-22.64,4.12c-3.9,2.79-22.32,9.63-28.81,36.45   c-4.75,22.93,5.37,36.26,9.41,42.51c4.04,6.25,19.4,14.82,19.4,14.82c-11.47,5.07-17.05,13.05-17.05,13.05S6.19,162.24,8.76,191.42   c1.32,17.93,15.61,34.37,29.4,39.98c24.55,10.44,44.39-1.76,44.39-1.76v-20.87c0,0-11.02,7.5-21.76,7.64   c-30.43-1.25-32.04-24.99-32.04-24.99s-4.41-17.35,9.41-30.28c4.34-3.16,15.88-10.18,15.88-10.18s6.76-3.27,6.76-13.05   s-6.73-12.98-6.76-13.06c-6.91-4.48-32.24-13.79-24.7-44.27c0,0,6.57-21.07,31.46-21.17c8.82-0.98,41.03,19.99,41.03,19.99   l61.57,34.69l14.7,8.4c0,0,6.47,5.05,6.47,15.41c0,10.36-6.47,15.58-6.47,15.58L111.07,192.59z"/>
</g>
<g class="st1">
	<text transform="matrix(1 0 0 1 -1.220703e-04 238.7923)" class="st2 st3 st4">ZIGGSTA</text>
</g>
<g>
	<g>
		<path class="st5" d="M355.84,196.86v-18.33l55.17-78.67l-0.17-0.5h-52.67V78.53h84v17.83l-56.5,79.17l0.33,0.5h56.34v20.83H355.84    z"/>
		<path class="st5" d="M496.17,196.86V78.53h23.83v118.34H496.17z"/>
		<path class="st5" d="M633.68,198.03c-17.56,0-32-5.39-43.33-16.17c-11.33-10.78-17-25.44-17-44c0-17.78,5.36-32.36,16.08-43.75    c10.72-11.39,25.14-17.08,43.25-17.08c8.78,0,17.33,1.72,25.67,5.17c8.33,3.45,15.44,8.45,21.33,15l-16.5,14.33    c-8.22-8.22-18.39-12.33-30.5-12.33c-10,0-18.31,3.5-24.92,10.5c-6.61,7-9.92,16.39-9.92,28.17c0,11.22,3.25,20.5,9.75,27.83    c6.5,7.33,15.19,11,26.08,11c8.55,0,16.5-2.28,23.83-6.83v-17.33h-26.5v-20.17h49.33v51c-5.56,4.45-12.5,8-20.83,10.67    C651.18,196.7,642.57,198.03,633.68,198.03z"/>
		<path class="st5" d="M790.35,198.03c-17.56,0-32-5.39-43.33-16.17c-11.33-10.78-17-25.44-17-44c0-17.78,5.36-32.36,16.08-43.75    c10.72-11.39,25.14-17.08,43.25-17.08c8.78,0,17.33,1.72,25.67,5.17c8.33,3.45,15.44,8.45,21.33,15l-16.5,14.33    c-8.22-8.22-18.39-12.33-30.5-12.33c-10,0-18.31,3.5-24.92,10.5c-6.61,7-9.92,16.39-9.92,28.17c0,11.22,3.25,20.5,9.75,27.83    c6.5,7.33,15.19,11,26.08,11c8.55,0,16.5-2.28,23.83-6.83v-17.33h-26.5v-20.17h49.33v51c-5.56,4.45-12.5,8-20.83,10.67    C807.85,196.7,799.24,198.03,790.35,198.03z"/>
		<path class="st5" d="M927.18,198.36c-16.56,0-30.95-6.28-43.17-18.83l14.17-17.33c4.22,4.78,8.97,8.44,14.25,11    c5.28,2.56,10.36,3.83,15.25,3.83c5.44,0,9.61-1.14,12.5-3.42c2.89-2.28,4.33-5.31,4.33-9.08c0-4.11-1.47-7.28-4.42-9.5    c-2.95-2.22-8.31-4.67-16.08-7.33c-4.22-1.44-7.81-2.8-10.75-4.08c-2.95-1.28-6.11-2.97-9.5-5.08c-3.39-2.11-6.14-4.36-8.25-6.75    c-2.11-2.39-3.86-5.39-5.25-9c-1.39-3.61-2.08-7.58-2.08-11.92c0-9.44,3.67-17.42,11-23.92c7.33-6.5,16.33-9.8,27-9.92    c14.44,0,27.78,5,40,15l-13.67,17.67c-9.56-7.78-18.17-11.67-25.83-11.67c-4.22,0-7.64,1.06-10.25,3.17    c-2.61,2.11-3.97,5-4.08,8.67c0,3.45,1.42,6.17,4.25,8.17c2.83,2,8.08,4.5,15.75,7.5c12.22,4.78,20.22,8.45,24,11    c8.56,5.78,12.83,14.17,12.83,25.17c0,8.22-2.22,15.2-6.67,20.92c-4.45,5.72-9.72,9.78-15.83,12.17    C940.57,197.17,934.07,198.36,927.18,198.36z"/>
		<path class="st5" d="M1042.68,196.86v-97.5h-32.33V78.53h88.83v20.83h-32.83v97.5H1042.68z"/>
		<path class="st5" d="M1125.85,196.86l43.83-118.34h22.67l44,118.34h-24.5l-8.17-23.67h-45.33l-8,23.67H1125.85z M1165.02,153.2h32    l-15.83-46.33h-0.33L1165.02,153.2z"/>
	</g>
</g>
</svg>