<svg xmlns="http://www.w3.org/2000/svg" xmlns:xlink="http://www.w3.org/1999/xlink" version="1.1" id="Layer_1" x="0px" y="0px" width="97.139px" height="81.867px" viewBox="0 0 97.139 81.867" enable-background="new 0 0 97.139 81.867" xml:space="preserve">
<g>
	<path fill="#DA3A64" d="M22.368,69.114c0,0-0.994,7.184,5.906,11.171c3.445,2.338,7.813,1.771,11.5,0.319   c0.616-0.246,19.218-11.144,19.218-11.144S91.275,51.06,91.275,51.022c6.398-4.07,5.851-10.021,5.851-10.021   s0.558-5.892-5.851-10.201c-6.361-3.71-33.607-19.154-33.607-19.154L38.51,0.822c0,0-5.203-2.346-10.237,0.89   c-6.69,4.122-5.819,9.753-5.819,9.753v1.775l5.641,3.368v-5.144c0-5.7,6.736-6.289,8.466-5.321c1.725,0.972,51.61,29.5,51.61,29.5   s3.178,1.428,3.178,5.358c0,3.933-3.178,5.348-3.178,5.348L55.715,65.034L37.798,75.321c0,0-1.675,0.948-3.546,0.977   c-7.014-0.904-6.028-7.184-6.028-7.184H22.368z"/>
	<path fill="#DA3A64" d="M22.368,69.114V46.057V23.531l5.856,3.19v42.394H22.368z"/>
	<path fill="#DA3A64" d="M31.062,57.494v6.289l20.846-11.701c0,0,7.093-3.141,7.093-11.081c0-7.959-7.093-10.913-7.093-10.913   l-23.813-13.48c0,0-2.651-1.598-5.462-3.373c-2.807-1.771-6.736-1.771-6.736-1.771s-3.482,0-6.833,1.242   C7.892,13.55,2.333,15.613,0.375,23.7c-1.433,6.918,1.621,10.94,2.839,12.824c1.219,1.885,5.851,4.478,5.851,4.478   c-3.459,1.523-5.143,3.924-5.143,3.924s-4.5,3.414-3.725,12.213c0.397,5.412,4.71,10.368,8.868,12.066   c7.407,3.14,13.39-0.529,13.39-0.529v-6.298c0,0-3.322,2.264-6.563,2.3c-9.177-0.375-9.666-7.539-9.666-7.539   s-1.328-5.23,2.838-9.128c1.31-0.959,4.792-3.076,4.792-3.076s2.04-0.985,2.04-3.933c0-2.954-2.031-3.916-2.04-3.943   c-2.086-1.351-9.726-4.158-7.453-13.354c0,0,1.985-6.357,9.493-6.385c2.66-0.296,12.376,6.029,12.376,6.029l18.57,10.465   l4.435,2.533c0,0,1.954,1.525,1.954,4.656c0,3.121-1.954,4.691-1.954,4.691L31.062,57.494z"/>
</g>
</svg>